<svg version="1.1" id="Layer_1" xmlns="http://www.w3.org/2000/svg" xmlns:xlink="http://www.w3.org/1999/xlink" x="0px" y="0px"
	 width="100%" viewBox="0 0 128 128" enable-background="new 0 0 128 128" xml:space="preserve">
<path fill="#000000" opacity="1.000000" stroke="none" 
	d="
M58.000000,129.000000 
	C38.666668,129.000000 19.833334,129.000000 1.000000,129.000000 
	C1.000000,86.333336 1.000000,43.666668 1.000000,1.000000 
	C43.666668,1.000000 86.333336,1.000000 129.000000,1.000000 
	C129.000000,43.666668 129.000000,86.333336 129.000000,129.000000 
	C105.500000,129.000000 82.000000,129.000000 58.000000,129.000000 
M77.500000,101.000000 
	C91.916367,101.000000 106.332733,101.000000 120.744904,101.000000 
	C120.744904,94.053703 120.744904,87.646408 120.744904,80.883377 
	C118.070618,80.883377 115.639160,80.883377 113.256332,80.883377 
	C111.341843,57.691998 93.289261,39.563812 72.460579,37.110451 
	C59.040092,35.529678 45.980019,37.545486 35.172131,46.456486 
	C24.429472,55.313702 17.787636,66.736916 16.708384,80.859596 
	C13.945870,80.985306 11.540055,81.094780 9.316849,81.195946 
	C9.316849,88.052254 9.316849,94.453445 9.316849,101.000000 
	C31.922247,101.000000 54.211124,101.000000 77.500000,101.000000 
z"/>
<path fill="#FFFFFF" opacity="1.000000" stroke="none" 
	d="
M77.000000,101.000000 
	C54.211124,101.000000 31.922247,101.000000 9.316849,101.000000 
	C9.316849,94.453445 9.316849,88.052254 9.316849,81.195946 
	C11.540055,81.094780 13.945870,80.985306 16.708384,80.859596 
	C17.787636,66.736916 24.429472,55.313702 35.172131,46.456486 
	C45.980019,37.545486 59.040092,35.529678 72.460579,37.110451 
	C93.289261,39.563812 111.341843,57.691998 113.256332,80.883377 
	C115.639160,80.883377 118.070618,80.883377 120.744904,80.883377 
	C120.744904,87.646408 120.744904,94.053703 120.744904,101.000000 
	C106.332733,101.000000 91.916367,101.000000 77.000000,101.000000 
M87.498138,81.000000 
	C92.957001,81.000000 98.415863,81.000000 103.883583,81.000000 
	C103.120338,60.145847 84.560905,45.051281 59.724247,46.202286 
	C42.800125,46.986603 27.083338,62.922806 26.196527,81.000000 
	C46.308163,81.000000 66.403389,81.000000 87.498138,81.000000 
M22.629951,93.000000 
	C52.688740,93.000000 82.747528,93.000000 112.755356,93.000000 
	C112.755356,91.430847 112.755356,90.357269 112.755356,89.179489 
	C80.806671,89.179489 49.097408,89.179489 17.196861,89.179489 
	C17.196861,90.423370 17.196861,91.498672 17.196861,93.000000 
	C18.734652,93.000000 20.198185,93.000000 22.629951,93.000000 
z"/>
<path fill="#000000" opacity="1.000000" stroke="none" 
	d="
M86.998375,81.000000 
	C66.403389,81.000000 46.308163,81.000000 26.196527,81.000000 
	C27.083338,62.922806 42.800125,46.986603 59.724247,46.202286 
	C84.560905,45.051281 103.120338,60.145847 103.883583,81.000000 
	C98.415863,81.000000 92.957001,81.000000 86.998375,81.000000 
z"/>
<path fill="#000000" opacity="1.000000" stroke="none" 
	d="
M22.145836,93.000000 
	C20.198185,93.000000 18.734652,93.000000 17.196861,93.000000 
	C17.196861,91.498672 17.196861,90.423370 17.196861,89.179489 
	C49.097408,89.179489 80.806671,89.179489 112.755356,89.179489 
	C112.755356,90.357269 112.755356,91.430847 112.755356,93.000000 
	C82.747528,93.000000 52.688740,93.000000 22.145836,93.000000 
z"/>
</svg>